<svg width="25" height="24" viewBox="0 0 25 24" fill="none" xmlns="http://www.w3.org/2000/svg">
<mask id="mask0_421_1397" style="mask-type:luminance" maskUnits="userSpaceOnUse" x="2" y="6" width="21" height="17">
<path fill-rule="evenodd" clip-rule="evenodd" d="M2.5 6.5401H22.0859V22.7217H2.5V6.5401Z" fill="white"/>
</mask>
<g mask="url(#mask0_421_1397)">
<path fill-rule="evenodd" clip-rule="evenodd" d="M7.21547 8.0401C6.77447 8.0401 5.30047 8.2181 4.87747 10.5021L4.10547 16.5021C3.85447 18.1851 4.04847 19.4031 4.68347 20.1401C5.31047 20.8681 6.43247 21.2221 8.11247 21.2221H16.4605C17.5085 21.2221 18.9395 21.0131 19.8035 20.0151C20.4895 19.2241 20.7255 18.0461 20.5055 16.5131L19.7265 10.4611C19.3945 8.9701 18.5185 8.0401 17.3945 8.0401H7.21547ZM16.4605 22.7221H8.11247C5.96947 22.7221 4.47647 22.1971 3.54747 21.1181C2.61447 20.0361 2.30247 18.4131 2.62047 16.2951L3.39647 10.2691C3.90647 7.5061 5.77147 6.5401 7.21547 6.5401H17.3945C18.8445 6.5401 20.6075 7.5031 21.2025 10.2041L21.9915 16.3111C22.2745 18.2821 21.9205 19.8631 20.9375 20.9971C19.9595 22.1251 18.4115 22.7221 16.4605 22.7221Z" fill="#A2A2A2"/>
</g>
<path fill-rule="evenodd" clip-rule="evenodd" d="M16.5978 7.82031C16.1838 7.82031 15.8478 7.48431 15.8478 7.07031C15.8478 5.10131 14.2458 3.50031 12.2778 3.50031H12.2628C11.3218 3.50031 10.4048 3.87931 9.73978 4.54031C9.07178 5.20531 8.68878 6.12831 8.68878 7.07031C8.68878 7.48431 8.35278 7.82031 7.93878 7.82031C7.52478 7.82031 7.18878 7.48431 7.18878 7.07031C7.18878 5.73131 7.73278 4.42231 8.68078 3.47731C9.62578 2.53831 10.9288 2.00031 12.2598 2.00031H12.2808C15.0738 2.00031 17.3478 4.27431 17.3478 7.07031C17.3478 7.48431 17.0118 7.82031 16.5978 7.82031Z" fill="#A2A2A2"/>
<path fill-rule="evenodd" clip-rule="evenodd" d="M15.2433 12.3242H15.1973C14.7833 12.3242 14.4473 11.9882 14.4473 11.5742C14.4473 11.1602 14.7833 10.8242 15.1973 10.8242C15.6113 10.8242 15.9703 11.1602 15.9703 11.5742C15.9703 11.9882 15.6573 12.3242 15.2433 12.3242Z" fill="#A2A2A2"/>
<path fill-rule="evenodd" clip-rule="evenodd" d="M9.41219 12.3242H9.36719C8.95319 12.3242 8.61719 11.9882 8.61719 11.5742C8.61719 11.1602 8.95319 10.8242 9.36719 10.8242C9.78119 10.8242 10.1402 11.1602 10.1402 11.5742C10.1402 11.9882 9.82619 12.3242 9.41219 12.3242Z" fill="#A2A2A2"/>
</svg>
