<svg width="25" height="24" viewBox="0 0 25 24" fill="none" xmlns="http://www.w3.org/2000/svg">
<mask id="mask0_421_1398" style="mask-type:luminance" maskUnits="userSpaceOnUse" x="3" y="1" width="19" height="18">
<path fill-rule="evenodd" clip-rule="evenodd" d="M3.50006 1H21.997V18.348H3.50006V1Z" fill="white"/>
</mask>
<g mask="url(#mask0_421_1398)">
<path fill-rule="evenodd" clip-rule="evenodd" d="M12.7471 2.5C9.25207 2.5 6.81607 5.238 6.81607 7.695C6.81607 9.774 6.23907 10.735 5.72907 11.583C5.32007 12.264 4.99707 12.802 4.99707 13.971C5.16407 15.857 6.40907 16.848 12.7471 16.848C19.0501 16.848 20.3341 15.813 20.5001 13.906C20.4971 12.802 20.1741 12.264 19.7651 11.583C19.2551 10.735 18.6781 9.774 18.6781 7.695C18.6781 5.238 16.2421 2.5 12.7471 2.5ZM12.7471 18.348C8.07107 18.348 3.84507 18.018 3.50007 14.035C3.49707 12.387 4.00007 11.549 4.44407 10.811C4.89307 10.063 5.31607 9.358 5.31607 7.695C5.31607 4.462 8.30207 1 12.7471 1C17.1921 1 20.1781 4.462 20.1781 7.695C20.1781 9.358 20.6011 10.063 21.0501 10.811C21.4941 11.549 21.9971 12.387 21.9971 13.971C21.6481 18.018 17.4231 18.348 12.7471 18.348Z" fill="#A2A2A2"/>
</g>
<path fill-rule="evenodd" clip-rule="evenodd" d="M12.6983 22.5H12.6963C11.5753 22.499 10.5143 22.005 9.70927 21.108C9.43227 20.801 9.45727 20.326 9.76527 20.05C10.0733 19.772 10.5473 19.797 10.8243 20.106C11.3423 20.683 12.0073 21 12.6973 21H12.6983C13.3913 21 14.0593 20.683 14.5783 20.105C14.8563 19.798 15.3303 19.773 15.6373 20.05C15.9453 20.327 15.9703 20.802 15.6933 21.109C14.8853 22.006 13.8223 22.5 12.6983 22.5Z" fill="#A2A2A2"/>
</svg>
