<svg width="25" height="24" viewBox="0 0 25 24" fill="none" xmlns="http://www.w3.org/2000/svg">
<mask id="mask0_421_1396" style="mask-type:luminance" maskUnits="userSpaceOnUse" x="2" y="2" width="21" height="21">
<path fill-rule="evenodd" clip-rule="evenodd" d="M2.5 2.99988H22.9725V22.5009H2.5V2.99988Z" fill="white"/>
</mask>
<g mask="url(#mask0_421_1396)">
<path fill-rule="evenodd" clip-rule="evenodd" d="M4.32371 12.123C5.72571 16.485 11.2647 20.012 12.7367 20.885C14.2137 20.003 19.7927 16.437 21.1497 12.127C22.0407 9.341 21.2137 5.812 17.9277 4.753C16.3357 4.242 14.4787 4.553 13.1967 5.545C12.9287 5.751 12.5567 5.755 12.2867 5.551C10.9287 4.53 9.15471 4.231 7.53771 4.753C4.25671 5.811 3.43271 9.34 4.32371 12.123ZM12.7377 22.501C12.6137 22.501 12.4907 22.471 12.3787 22.41C12.0657 22.239 4.69271 18.175 2.89571 12.581C2.89471 12.581 2.89471 12.58 2.89471 12.58C1.76671 9.058 3.02271 4.632 7.07771 3.325C8.98171 2.709 11.0567 2.98 12.7347 4.039C14.3607 3.011 16.5207 2.727 18.3867 3.325C22.4457 4.634 23.7057 9.059 22.5787 12.58C20.8397 18.11 13.4127 22.235 13.0977 22.408C12.9857 22.47 12.8617 22.501 12.7377 22.501Z" fill="#A2A2A2"/>
</g>
<path fill-rule="evenodd" clip-rule="evenodd" d="M18.6537 10.6249C18.2667 10.6249 17.9387 10.3279 17.9067 9.9359C17.8407 9.1139 17.2907 8.4199 16.5077 8.1669C16.1127 8.0389 15.8967 7.6159 16.0237 7.2229C16.1527 6.8289 16.5717 6.6149 16.9677 6.7389C18.3307 7.1799 19.2857 8.3869 19.4027 9.8139C19.4357 10.2269 19.1287 10.5889 18.7157 10.6219C18.6947 10.6239 18.6747 10.6249 18.6537 10.6249Z" fill="#A2A2A2"/>
</svg>
